<svg width="25" height="23" viewBox="0 0 25 23" fill="none" xmlns="http://www.w3.org/2000/svg">
<path fill-rule="evenodd" clip-rule="evenodd" d="M24.2449 2.1215C24.5356 2.43342 24.5151 2.91892 24.1991 3.20589L11.4717 14.7632C11.0258 15.1681 10.3308 15.1357 9.92555 14.6912L5.47072 9.80566C5.18346 9.49061 5.20933 9.00537 5.52851 8.72183C5.8477 8.43829 6.33932 8.46383 6.62659 8.77887L10.7659 13.3184L23.1462 2.07632C23.4622 1.78935 23.9541 1.80958 24.2449 2.1215Z" fill="#00B012"/>
<path fill-rule="evenodd" clip-rule="evenodd" d="M7.81726 21.4314C10.0692 22.2322 12.5226 22.296 14.8142 21.6135C17.1059 20.931 19.1139 19.5383 20.5412 17.6416C21.9686 15.745 22.7392 13.4451 22.7392 11.0825C22.7392 10.6587 22.3911 10.3151 21.9617 10.3151C21.5323 10.3151 21.1842 10.6587 21.1842 11.0825C21.1842 13.1155 20.521 15.0944 19.2929 16.7264C18.0647 18.3584 16.3368 19.5568 14.365 20.1441C12.3931 20.7314 10.2821 20.6764 8.34434 19.9874C6.40658 19.2983 4.74509 18.0117 3.60579 16.3181C2.46648 14.6245 1.90991 12.6138 2.01846 10.5837C2.12701 8.55356 2.89491 6.61187 4.2085 5.04602C5.52209 3.48017 7.31155 2.37338 9.31203 1.88947C11.3125 1.40555 13.4177 1.57023 15.3159 2.35914C15.7117 2.52361 16.1676 2.34028 16.3343 1.94965C16.5009 1.55902 16.3152 1.10901 15.9194 0.944534C13.7133 0.0277004 11.2667 -0.163685 8.94187 0.398699C6.61699 0.961084 4.53734 2.24736 3.01074 4.06713C1.48414 5.8869 0.59172 8.14345 0.465567 10.5028C0.339414 12.8621 0.986235 15.1989 2.31029 17.1671C3.63435 19.1354 5.56527 20.6306 7.81726 21.4314Z" fill="#00B012"/>
</svg>
