<svg width="52" height="40" viewBox="0 0 52 40" fill="none" xmlns="http://www.w3.org/2000/svg">
<path fill-rule="evenodd" clip-rule="evenodd" d="M47.4259 6.07666C48.8085 5.73624 50.258 6.57955 50.8192 8.04696C51.3923 9.54532 50.9457 11.3325 49.6921 12.1629C49.2264 12.4724 49.0545 12.8283 48.9351 13.3828C48.2898 16.372 47.6222 19.3548 46.9546 22.3375C46.7772 23.1298 46.5999 23.9221 46.423 24.7146C46.3726 24.9404 46.3231 25.1663 46.2737 25.392C46.1565 25.9266 46.0396 26.4605 45.9119 26.9918C45.6851 27.9382 45.2577 28.3251 44.398 28.3921C44.2394 28.4045 44.0792 28.4037 43.92 28.4029C43.8803 28.4027 43.8406 28.4024 43.801 28.4024C31.5843 28.436 19.3652 28.4669 7.14854 28.4953C5.93547 28.5004 5.54146 28.1368 5.24536 26.7932C4.70479 24.3509 4.16349 21.9095 3.62227 19.4683C3.18564 17.499 2.74907 15.5298 2.31297 13.5607C2.30724 13.5366 2.30083 13.5126 2.29442 13.4885C2.27679 13.4223 2.25916 13.3561 2.25566 13.2899C2.23178 12.8102 2.04791 12.524 1.63002 12.3048C0.763196 11.8509 0.352471 10.9508 0.065918 9.97342V8.85416C0.323815 7.83549 0.756032 6.96381 1.61569 6.43255C2.93861 5.62535 4.51704 5.99671 5.45072 7.34807C6.32709 8.61432 6.24113 10.4583 5.25252 11.66C5.18297 11.742 5.11713 11.8259 5.0386 11.9261C5.02816 11.9394 5.01749 11.953 5.00656 11.9669C5.04221 12.0122 5.07553 12.0567 5.10801 12.1001C5.16256 12.173 5.21475 12.2427 5.27162 12.3074C5.56227 12.6373 5.85277 12.9676 6.14331 13.2979C7.02002 14.2946 7.89707 15.2917 8.77951 16.2815C11.2797 19.0796 14.9332 18.8191 17.0704 15.6703C18.2347 13.9532 19.3906 12.2287 20.5467 10.5038C21.4274 9.18972 22.3082 7.87545 23.1931 6.56408C23.3674 6.30618 23.4104 6.14371 23.2122 5.85229C22.2451 4.42872 22.3908 2.50742 23.5226 1.34174C24.688 0.139963 26.4216 0.134805 27.5941 1.32627C28.7331 2.48421 28.8788 4.40293 27.9379 5.8394C27.8806 5.92966 27.8233 6.01992 27.7445 6.14113C28.2555 6.90965 28.766 7.67882 29.2764 8.44798C29.7868 9.21715 30.2972 9.98631 30.8082 10.7548L33.9675 15.5052C36.1883 18.8449 39.8251 19.1441 42.4518 16.199C43.4564 15.072 44.4594 13.9433 45.4764 12.7989C45.7067 12.5396 45.9378 12.2795 46.1698 12.0185C45.5347 11.3093 45.1096 10.5176 45.0786 9.50663C45.0308 7.87417 46.0146 6.42481 47.4259 6.07666ZM28.5512 31.9254H43.7408C45.0661 31.9254 45.5724 32.5779 45.5748 34.2851C45.5748 34.6752 45.575 35.0656 45.5753 35.4562C45.5758 36.2379 45.5764 37.0203 45.5748 37.8028C45.57 39.3115 45.0423 40 43.8769 40H25.5997H7.52058C6.20482 40 5.72485 39.3837 5.72485 37.6893C5.72246 36.4953 5.72246 35.3012 5.72485 34.1072C5.72962 32.6088 6.26213 31.9254 7.43461 31.9254H28.5512Z" fill="url(#paint0_linear_449_473)"/>
<defs>
<linearGradient id="paint0_linear_449_473" x1="25.5659" y1="0.436523" x2="25.5659" y2="40" gradientUnits="userSpaceOnUse">
<stop offset="0.473958" stop-color="#FFC530"/>
<stop offset="1" stop-color="#FFA900"/>
</linearGradient>
</defs>
</svg>
